<svg width="100%" height="100%" viewBox="0 0 1920 1080" xmlns="http://www.w3.org/2000/svg" fill="none"><circle cx="1510.7239190096573" cy="544.5182229735362" r="1.484862855126257" fill="white"></circle><circle cx="1177.9251212551358" cy="580.9524929706963" r="1.3764286978015239" fill="white"></circle><circle cx="1185.7357187664911" cy="691.2074909863327" r="0.8246171663175046" fill="white"></circle><circle cx="1290.462146701591" cy="938.7553482093256" r="1.0303199751484997" fill="white"></circle><circle cx="1685.4133968292244" cy="272.7230932488399" r="1.6975696620806575" fill="white"></circle><circle cx="805.1130748176456" cy="977.4204506583852" r="1.769667430265419" fill="white"></circle><circle cx="1301.455743913581" cy="576.8984237476818" r="2.2222015795160184" fill="white"></circle><circle cx="940.562933967562" cy="33.744419110985476" r="0.7107742730795303" fill="white"></circle><circle cx="1240.6720093588838" cy="1041.723970176051" r="1.0707845935187117" fill="white"></circle><circle cx="909.7388708710985" cy="845.7481345187648" r="2.108962652067705" fill="white"></circle><circle cx="1895.2649628124896" cy="217.96227125167098" r="1.8288539397125123" fill="white"></circle><circle cx="553.0878782388517" cy="4.16839588534855" r="1.958261001775627" fill="white"></circle><circle cx="53.6750198795427" cy="33.152840876619855" r="1.4805771088588888" fill="white"></circle><circle cx="1146.136524559799" cy="588.2866411923413" r="1.5511943299168216" fill="white"></circle><circle cx="626.7206654867218" cy="949.4963526239426" r="0.5255679355663969" fill="white"></circle><circle cx="1793.6318327059264" cy="452.8281891834702" r="1.3535151270310006" fill="white"></circle><circle cx="738.5653818212888" cy="794.6494431016553" r="1.5798002072396033" fill="white"></circle><circle cx="1637.9191410886006" cy="834.1118898776645" r="1.2963849252390935" fill="white"></circle><circle cx="1489.5834506476485" cy="120.4609358279757" r="0.9319577043489087" fill="white"></circle><circle cx="65.63144001158022" cy="904.2446597343403" r="2.467201744540782" fill="white"></circle><circle cx="91.10781825518401" cy="297.18480414199547" r="1.234432063647958" fill="white"></circle><circle cx="1752.6566950242207" cy="795.8562239098096" r="1.0398025662210193" fill="white"></circle><circle cx="643.9189163453415" cy="990.4338282124985" r="1.4212827188427544" fill="white"></circle><circle cx="420.33843678768733" cy="375.0238142765252" r="0.6347285376994858" fill="white"></circle><circle cx="248.19452118715532" cy="236.84249328661903" r="1.7589091584946335" fill="white"></circle><circle cx="94.99273329823438" cy="157.10151394988466" r="1.5650724487025474" fill="white"></circle><circle cx="1776.1491981644701" cy="201.25596490094074" r="0.5600506707950519" fill="white"></circle><circle cx="1058.4664868418033" cy="365.7396518178759" r="1.382773797434147" fill="white"></circle><circle cx="1756.625472727341" cy="1071.2410730310269" r="1.9381293503668338" fill="white"></circle><circle cx="278.75641896202296" cy="88.55854287118648" r="0.7791705303133525" fill="white"></circle><circle cx="1299.2453621241882" cy="765.5068174516176" r="0.9435670678841324" fill="white"></circle><circle cx="1289.1694220756924" cy="290.1343143865428" r="2.1706209731673605" fill="white"></circle><circle cx="949.9799964388792" cy="96.57970427423174" r="1.8932695035907896" fill="white"></circle><circle cx="1857.7579477467057" cy="76.10233914687194" r="0.5918683842587176" fill="white"></circle><circle cx="356.8529233597651" cy="846.2171505504795" r="1.68076501799119" fill="white"></circle><circle cx="789.9376406353348" cy="754.4056991698699" r="2.0468430803151865" fill="white"></circle><circle cx="1799.2251427048293" cy="48.18579448148644" r="1.0904950342204018" fill="white"></circle><circle cx="1289.1936306106431" cy="124.27712767251225" r="1.5034633193865692" fill="white"></circle><circle cx="560.1564428549672" cy="350.84177128080466" r="1.8994852702444556" fill="white"></circle><circle cx="343.4002999315882" cy="515.8601051229439" r="1.1801583771631319" fill="white"></circle><circle cx="1431.2900337166732" cy="441.5956099208789" r="1.526589472884519" fill="white"></circle><circle cx="540.8893524126391" cy="516.617363324586" r="0.8233084853360291" fill="white"></circle><circle cx="736.7666258016043" cy="784.6093444415291" r="1.2237178156125328" fill="white"></circle><circle cx="1916.7583705041084" cy="832.7380170382424" r="1.8876172410671277" fill="white"></circle><circle cx="1814.7277495552112" cy="675.7992394578056" r="0.9782427371898854" fill="white"></circle><circle cx="1052.8651583810054" cy="616.2032495524645" r="1.2654401059556264" fill="white"></circle><circle cx="308.27404524581937" cy="1034.1900683203287" r="1.6103294660621867" fill="white"></circle><circle cx="215.84756611659927" cy="1034.9865766572539" r="2.372020011815763" fill="white"></circle><circle cx="710.1524201584434" cy="912.9697137408382" r="1.9534917443952997" fill="white"></circle><circle cx="1647.4154035129789" cy="114.06454054879462" r="1.5917275651137182" fill="white"></circle><circle cx="822.296445155078" cy="1072.2308328336906" r="1.8939135390126358" fill="white"></circle><circle cx="1159.403649716921" cy="106.11005906286407" r="0.8297475963110976" fill="white"></circle><circle cx="1792.8567947073275" cy="625.7680730259734" r="0.9823671047585676" fill="white"></circle><circle cx="618.1379659541989" cy="641.0031899029203" r="0.9309093828286028" fill="white"></circle><circle cx="1339.010941671572" cy="620.0110362141648" r="1.7594848883200749" fill="white"></circle><circle cx="13.896147705543171" cy="884.9478861686317" r="2.0613882762931235" fill="white"></circle><circle cx="945.9085250159632" cy="0.8259993238825736" r="1.1616580883131302" fill="white"></circle><circle cx="112.60971620937767" cy="723.2018633083882" r="1.8515310367288484" fill="white"></circle><circle cx="200.8122515646322" cy="1077.879074710343" r="1.8003235494556233" fill="white"></circle><circle cx="1539.8656264280667" cy="707.0008306022356" r="1.4873078061693237" fill="white"></circle><circle cx="714.5838606632834" cy="174.47868773966422" r="1.9797381865381216" fill="white"></circle><circle cx="1424.1785804743795" cy="530.6485949105381" r="0.7349173708165764" fill="white"></circle><circle cx="1818.9265978690519" cy="624.8765264179384" r="1.1235459235322325" fill="white"></circle><circle cx="1332.4931646077625" cy="1008.440682084008" r="1.8172442821982138" fill="white"></circle><circle cx="1883.571564596192" cy="912.5262010582139" r="1.7106687367150157" fill="white"></circle><circle cx="591.1079517732605" cy="92.29220598971735" r="1.8779573247915637" fill="white"></circle><circle cx="384.41839345371903" cy="286.19647670643235" r="1.251178041744578" fill="white"></circle><circle cx="1296.6539517718322" cy="622.3202612336144" r="2.3250126456635427" fill="white"></circle><circle cx="1558.7044624611547" cy="1064.2972135465232" r="1.4127519794344838" fill="white"></circle><circle cx="1713.0861112309187" cy="946.7959351471484" r="1.089573695741032" fill="white"></circle><circle cx="237.91893896935832" cy="89.42123394027496" r="1.8370088652368382" fill="white"></circle><circle cx="710.6025415785342" cy="475.99758175455617" r="1.4414826248887675" fill="white"></circle><circle cx="984.235277856385" cy="440.28073596149204" r="2.4795437064244323" fill="white"></circle><circle cx="800.2805324218068" cy="824.4927260222358" r="1.3691720427964071" fill="white"></circle><circle cx="169.61831572759834" cy="125.18986031098245" r="1.1991847328024576" fill="white"></circle><circle cx="318.9533457131545" cy="327.0418624433513" r="0.7115417682232104" fill="white"></circle><circle cx="558.1688949280206" cy="323.6336810185993" r="2.0810172078363234" fill="white"></circle><circle cx="874.499804773991" cy="922.6292686238713" r="0.5015446376996708" fill="white"></circle><circle cx="1356.189521245697" cy="93.74702060426047" r="2.2739959377574395" fill="white"></circle><circle cx="1029.8450057017758" cy="575.1019470344868" r="0.9768093191454152" fill="white"></circle><circle cx="440.2788304668411" cy="749.9887335096183" r="1.568856957958955" fill="white"></circle><circle cx="885.9110203705042" cy="746.6217148231691" r="0.8607141755584071" fill="white"></circle><circle cx="1388.7000632050926" cy="726.9853604143256" r="1.4465979154353823" fill="white"></circle><circle cx="1201.3191509269955" cy="559.3285602064012" r="2.386613091241081" fill="white"></circle><circle cx="1521.47088933465" cy="801.7320306595489" r="1.15079939380248" fill="white"></circle><circle cx="1696.585936048544" cy="1026.0397386230634" r="1.907530700010304" fill="white"></circle><circle cx="965.4986068509953" cy="401.71200921671374" r="0.9382946264002392" fill="white"></circle><circle cx="1540.9839627123595" cy="909.0557985072517" r="0.5304267647779008" fill="white"></circle><circle cx="1119.415342095909" cy="868.4710867270197" r="1.005696080770441" fill="white"></circle><circle cx="1484.564960533244" cy="198.4135578041472" r="1.4062775661939715" fill="white"></circle><circle cx="1243.1135547603576" cy="520.8312178310107" r="0.5175509126424971" fill="white"></circle><circle cx="495.3188853747208" cy="66.27836887730334" r="1.8765223003537668" fill="white"></circle><circle cx="1765.312804781308" cy="1056.6881656514217" r="0.8701663599092786" fill="white"></circle><circle cx="1407.7465283900533" cy="337.1403938346513" r="0.629912589653864" fill="white"></circle><circle cx="125.47927374714959" cy="879.1489552984723" r="2.0134425176332424" fill="white"></circle><circle cx="353.7907209449577" cy="511.2048673718788" r="2.1954444786710683" fill="white"></circle><circle cx="631.8921557729204" cy="635.4679009545458" r="0.8225269128210093" fill="white"></circle><circle cx="228.59976909301636" cy="133.21444170695267" r="1.8797899945258862" fill="white"></circle><circle cx="665.5185625260324" cy="1016.4736300361732" r="0.768550047719839" fill="white"></circle><circle cx="6.854741226695893" cy="790.0050460696033" r="2.216108649978134" fill="white"></circle><circle cx="365.18676312719975" cy="1063.4882041528779" r="0.9047543997061651" fill="white"></circle><circle cx="837.9454711497888" cy="127.76167386634215" r="1.303892395534846" fill="white"></circle><circle cx="18.444781463886954" cy="561.3047494649196" r="2.0489023339303594" fill="white"></circle><circle cx="1079.548599191766" cy="270.0426198093926" r="1.7869781062830254" fill="white"></circle><circle cx="454.4627023896419" cy="817.6861833874034" r="0.5473229841042038" fill="white"></circle><circle cx="1555.4209978101069" cy="28.90770868092379" r="0.642133535530252" fill="white"></circle><circle cx="365.894235228145" cy="915.7939604276032" r="2.319084406878541" fill="white"></circle><circle cx="1284.0338757083296" cy="870.3076741237528" r="1.3153975132193625" fill="white"></circle><circle cx="200.22485433894062" cy="647.0590107116747" r="1.9948926535827964" fill="white"></circle><circle cx="1851.4770849626423" cy="430.7727910152623" r="0.6277629142722745" fill="white"></circle><circle cx="857.1334112024274" cy="702.4303423519183" r="1.3202437723139822" fill="white"></circle><circle cx="1861.7271908641085" cy="915.6358994662297" r="1.1852294118338125" fill="white"></circle><circle cx="1389.645359483857" cy="38.877169834327255" r="1.5015471431427154" fill="white"></circle><circle cx="775.2898249221582" cy="564.0562459349468" r="1.1111768901738381" fill="white"></circle><circle cx="1458.7465756827125" cy="775.504976676069" r="2.1344377143262223" fill="white"></circle><circle cx="26.46157745447482" cy="822.4431834901998" r="2.3487608859449014" fill="white"></circle><circle cx="1296.4619087089668" cy="970.582177882273" r="2.2977484882011123" fill="white"></circle><circle cx="1135.8457012437566" cy="193.61219291720354" r="1.0673727859153983" fill="white"></circle><circle cx="1459.2092871267694" cy="266.6198640065688" r="0.5958378184344761" fill="white"></circle><circle cx="1914.70957896895" cy="37.895105235991494" r="1.7506807666753885" fill="white"></circle><circle cx="1166.929367315061" cy="449.66731811754966" r="2.2345998725156164" fill="white"></circle><circle cx="1364.2016614615363" cy="953.6353232763205" r="1.6976711290395095" fill="white"></circle><circle cx="964.6023522563742" cy="775.2257841052606" r="1.9235092414650148" fill="white"></circle><circle cx="642.3217001397296" cy="416.008236931955" r="2.114435666803329" fill="white"></circle><circle cx="230.95497872642753" cy="288.7023668738332" r="0.8981534022140898" fill="white"></circle><circle cx="76.47113501921353" cy="651.0170132970819" r="1.0577780818842655" fill="white"></circle><circle cx="394.8367108983305" cy="117.9011630504197" r="1.3549686094955598" fill="white"></circle><circle cx="1652.994601696769" cy="451.8125252453151" r="2.0478280646564317" fill="white"></circle><circle cx="1590.6743941298173" cy="666.2556418252711" r="2.199698582720772" fill="white"></circle><circle cx="1628.9260744943977" cy="72.12160521476405" r="2.452805327125097" fill="white"></circle><circle cx="229.17960261168275" cy="583.7500167444422" r="0.7717155721898061" fill="white"></circle><circle cx="624.1175040723738" cy="952.7272806288089" r="1.3935751323701893" fill="white"></circle><circle cx="1490.8173371382934" cy="943.9095749691589" r="2.1664866918732657" fill="white"></circle><circle cx="1447.031430611672" cy="528.2215930254748" r="2.2879031534506713" fill="white"></circle><circle cx="1524.1654183057385" cy="311.6792619677408" r="2.3480270936473713" fill="white"></circle><circle cx="568.5294186716226" cy="127.39339141577751" r="1.4062602836633298" fill="white"></circle><circle cx="701.9758340721229" cy="954.6851515634777" r="1.1368083789193966" fill="white"></circle><circle cx="1244.0407759728473" cy="1072.5677542428289" r="1.1346173387475442" fill="white"></circle><circle cx="1723.2108975362962" cy="1076.7562818068582" r="1.7427858169333246" fill="white"></circle><circle cx="1812.932869407603" cy="546.6949140167355" r="1.1742208361532462" fill="white"></circle><circle cx="481.60391085418155" cy="972.8784008290645" r="0.7445930781670542" fill="white"></circle><circle cx="1237.303702688015" cy="60.22800058999606" r="0.619949256906235" fill="white"></circle><circle cx="687.8620958366095" cy="829.7678671600339" r="1.4457819220538664" fill="white"></circle><circle cx="563.7061988153407" cy="79.74440791437391" r="1.315512703428754" fill="white"></circle><circle cx="294.3277052646647" cy="397.96262167111826" r="0.9705532242723889" fill="white"></circle><circle cx="465.19440330140003" cy="74.6297076321784" r="2.1114415842663234" fill="white"></circle><circle cx="1296.8983725552987" cy="368.71862256503874" r="1.9277928595421052" fill="white"></circle><circle cx="693.2612780784907" cy="925.8780205609254" r="0.9997996621599983" fill="white"></circle><circle cx="813.5507663788705" cy="766.092123614437" r="2.0123523273435686" fill="white"></circle><circle cx="715.5972678220812" cy="572.2866853418377" r="0.6371714558925659" fill="white"></circle><circle cx="1348.2101779451882" cy="644.030042703051" r="1.1748408051621668" fill="white"></circle><circle cx="1813.1944075633533" cy="689.5631099119604" r="0.881623121359663" fill="white"></circle><circle cx="1224.2008643444856" cy="14.072400392352415" r="1.6680841948126655" fill="white"></circle><circle cx="350.7645536121632" cy="663.9538670722641" r="1.2731446785156977" fill="white"></circle><circle cx="1688.9653289143098" cy="949.7761413129313" r="0.8511512697489332" fill="white"></circle><circle cx="561.0897509274141" cy="86.71887921007323" r="1.77581810677579" fill="white"></circle><circle cx="1844.8185559141482" cy="122.90383325573838" r="1.4152776282265798" fill="white"></circle><circle cx="166.61876516887716" cy="31.184657073302304" r="1.360263466187467" fill="white"></circle><circle cx="1379.0276801482535" cy="800.1364306968189" r="1.0481014962990254" fill="white"></circle><circle cx="1456.96568884703" cy="211.82516686599072" r="1.6854277623739033" fill="white"></circle><circle cx="1882.7589498504217" cy="833.0385441996985" r="0.8884515909231108" fill="white"></circle><circle cx="1650.3616697442899" cy="619.7431680122739" r="0.6390326909068342" fill="white"></circle><circle cx="1036.2515339526783" cy="199.13672958003977" r="1.9607174693439013" fill="white"></circle><circle cx="1435.9515763029656" cy="241.74092010162218" r="1.4394030552611348" fill="white"></circle><circle cx="414.2096241880579" cy="810.2412132566736" r="2.1715038146624592" fill="white"></circle><circle cx="934.3415249091674" cy="415.5284377126244" r="1.0517373908861969" fill="white"></circle><circle cx="1227.825285789035" cy="167.50911486702464" r="2.0522823954816545" fill="white"></circle><circle cx="129.39489865687818" cy="301.1729633704199" r="1.6128594505760878" fill="white"></circle><circle cx="1363.8355607874303" cy="111.54081616541455" r="1.425396645307115" fill="white"></circle><circle cx="631.8878676858766" cy="90.35141867506948" r="1.0386698877135379" fill="white"></circle><circle cx="559.5342049222036" cy="862.543284764773" r="1.8694181830213794" fill="white"></circle><circle cx="1532.052082551889" cy="290.64779381960744" r="2.3205531552861993" fill="white"></circle><circle cx="1918.1733675029345" cy="147.19549416777664" r="1.0308362532803614" fill="white"></circle><circle cx="597.7148854509992" cy="786.0323438772986" r="1.7805574741603216" fill="white"></circle><circle cx="507.32651183988537" cy="800.9087747112367" r="1.4218038427688673" fill="white"></circle><circle cx="1124.6682052170459" cy="849.378282368342" r="1.5540334827223208" fill="white"></circle><circle cx="314.0055999573926" cy="855.4396760552627" r="2.0657885479191394" fill="white"></circle><circle cx="419.68968393729796" cy="406.6531795155607" r="0.6658723975210137" fill="white"></circle><circle cx="917.3602429580892" cy="491.4863202327288" r="2.1460380222482467" fill="white"></circle><circle cx="1168.2623844976868" cy="103.40872595222696" r="2.2629424062837376" fill="white"></circle><circle cx="602.3155201048702" cy="641.3437481771889" r="1.228416582067839" fill="white"></circle><circle cx="1852.1578679696754" cy="590.7231244936966" r="1.1975643967464462" fill="white"></circle><circle cx="1506.8005636117482" cy="930.9989076976404" r="2.372737642332414" fill="white"></circle><circle cx="675.2701745086601" cy="844.984480309881" r="1.1057212052832668" fill="white"></circle><circle cx="10.744747524787073" cy="655.6897484440117" r="0.6519287912554228" fill="white"></circle><circle cx="1158.4627697529218" cy="229.4157418550732" r="0.8144420424089036" fill="white"></circle><circle cx="1259.0793744420916" cy="1020.6977095986479" r="2.2802802826698185" fill="white"></circle><circle cx="744.3194829090896" cy="891.4573994325447" r="1.3629443328982793" fill="white"></circle><circle cx="1538.0551387300166" cy="141.91012283378421" r="2.2448034769783733" fill="white"></circle><circle cx="1334.2676488179316" cy="585.1450397857976" r="1.544490515158822" fill="white"></circle><circle cx="237.9304654009482" cy="923.3906547821939" r="0.7381930007998609" fill="white"></circle><circle cx="1061.9599120185628" cy="462.3295099610029" r="0.9311911680264311" fill="white"></circle><circle cx="1532.0724310388757" cy="342.05730901001607" r="1.4014460874638686" fill="white"></circle><circle cx="1715.6494391390079" cy="716.5947846936175" r="0.7545689172449888" fill="white"></circle><circle cx="1215.791054359793" cy="902.9294439134709" r="1.6497466333340616" fill="white"></circle><circle cx="904.2075898949632" cy="351.3287043544215" r="0.6421163622014849" fill="white"></circle><circle cx="139.40055717458236" cy="805.3416779850241" r="1.7759778640468058" fill="white"></circle><circle cx="50.12217083262328" cy="506.0388334009448" r="1.1837020282339012" fill="white"></circle><circle cx="1038.5791772974048" cy="605.0224528690356" r="1.9868120507902938" fill="white"></circle><circle cx="852.3761563006871" cy="874.6740249537545" r="1.9760010262223457" fill="white"></circle><circle cx="219.54538731707302" cy="576.6032902068091" r="1.415741653064225" fill="white"></circle><circle cx="1161.208512146407" cy="399.8726496038837" r="0.5728401665456624" fill="white"></circle><circle cx="1549.890884075412" cy="391.5046614230881" r="1.8033302321279518" fill="white"></circle><circle cx="150.32224960183555" cy="865.1354240282243" r="1.1775268461863462" fill="white"></circle><circle cx="1513.1436131071473" cy="55.80748761323113" r="1.587364271124832" fill="white"></circle><circle cx="1058.2793525363718" cy="636.1001028426884" r="0.579329984242873" fill="white"></circle><circle cx="1606.649389425318" cy="282.04040882890456" r="1.3941268683996668" fill="white"></circle><circle cx="573.2548112670827" cy="719.957545682079" r="1.0493289535773704" fill="white"></circle><circle cx="1295.7200433891717" cy="552.3523331686874" r="2.3105418175162376" fill="white"></circle><circle cx="1851.2394507458648" cy="118.77324296278215" r="1.855713195618034" fill="white"></circle><circle cx="1514.1427162022674" cy="638.2372076205534" r="2.3285698188889943" fill="white"></circle><circle cx="1450.4767764805829" cy="1069.246981527114" r="0.929842482393453" fill="white"></circle><circle cx="361.472391724712" cy="550.2973243159247" r="1.119654677786285" fill="white"></circle><circle cx="946.3629225416012" cy="32.46848954941484" r="1.139973916543334" fill="white"></circle><circle cx="1589.1502813049287" cy="975.3550180254049" r="1.1227236943321" fill="white"></circle><circle cx="633.3892795144434" cy="852.9022748034005" r="0.9778899284565341" fill="white"></circle><circle cx="611.0224114092142" cy="199.2180400407962" r="2.4829775128270324" fill="white"></circle><circle cx="391.57331127399175" cy="82.70282766270284" r="1.5991763278103828" fill="white"></circle><circle cx="1823.8008320589352" cy="77.37616338571084" r="1.875386075553196" fill="white"></circle><circle cx="474.64865422897105" cy="485.37061027566835" r="1.280828997224555" fill="white"></circle><circle cx="131.7178357605792" cy="84.35148851683547" r="1.1719404053412648" fill="white"></circle><circle cx="379.45597832748365" cy="564.0857923032806" r="1.88064838161828" fill="white"></circle><circle cx="1302.4259024647515" cy="215.5869286352911" r="1.4616772883253466" fill="white"></circle><circle cx="681.9639756701462" cy="615.9840678252544" r="1.9078704089410494" fill="white"></circle><circle cx="332.2338960911027" cy="22.94210702133757" r="2.47607251054268" fill="white"></circle><circle cx="40.61141695917641" cy="500.08712810759374" r="2.0513421794837026" fill="white"></circle><circle cx="702.3547962967255" cy="25.794990426323352" r="2.281995474945493" fill="white"></circle><circle cx="954.0569947863457" cy="678.5368124309333" r="0.5321969650570271" fill="white"></circle><circle cx="1895.7434106353467" cy="334.3024272716252" r="1.1539632978845864" fill="white"></circle><circle cx="747.8401558800124" cy="814.2901965184008" r="0.5506555184606898" fill="white"></circle><circle cx="183.83328436758333" cy="1023.1068608338155" r="1.2572928768930791" fill="white"></circle><circle cx="1053.9136781468621" cy="54.23566673999464" r="1.4451024463917594" fill="white"></circle><circle cx="437.58551938399194" cy="413.0309377685091" r="1.0768206291049185" fill="white"></circle><circle cx="1420.1480675408845" cy="640.7981514254715" r="0.5968832565607283" fill="white"></circle><circle cx="572.6362722091567" cy="784.551669809387" r="0.9531325843944463" fill="white"></circle><circle cx="1719.6772158818837" cy="633.5488354755498" r="2.1329385362438207" fill="white"></circle><circle cx="1462.9391135123496" cy="691.7413223852567" r="0.5071175993073918" fill="white"></circle><circle cx="1915.25467537538" cy="1035.0314624174819" r="0.9908843532773797" fill="white"></circle><circle cx="1370.4600881515755" cy="271.46304186173825" r="2.10750203870797" fill="white"></circle><circle cx="1420.4553660706933" cy="784.9839753165091" r="1.99089019897069" fill="white"></circle><circle cx="1048.670782226159" cy="669.3002419560381" r="2.3538818287177765" fill="white"></circle><circle cx="403.4564836185365" cy="58.45531226493109" r="2.2342481370278175" fill="white"></circle><circle cx="922.6441196880169" cy="590.5921923956021" r="1.1913484712296452" fill="white"></circle><circle cx="956.6568768498587" cy="837.5242127372208" r="2.4102490670357026" fill="white"></circle><circle cx="341.60159069514987" cy="685.8730508671018" r="0.9822432274437465" fill="white"></circle><circle cx="1192.4965684148178" cy="543.8969028540427" r="2.20653313816082" fill="white"></circle><circle cx="1735.845964501392" cy="385.0539436060093" r="2.0365899732322146" fill="white"></circle><circle cx="72.79256913711123" cy="567.3472402106669" r="0.9181477374305165" fill="white"></circle><circle cx="29.971318251829473" cy="985.6604271372547" r="2.2375433931446143" fill="white"></circle><circle cx="1505.127868134095" cy="246.33766036936436" r="1.660485839709736" fill="white"></circle><circle cx="432.37760718249194" cy="1043.467200008298" r="2.4704640384627896" fill="white"></circle><circle cx="1006.8980144142404" cy="945.3631414787894" r="1.238698773884114" fill="white"></circle><circle cx="1423.3374053497769" cy="73.42733164814733" r="1.4141056180299358" fill="white"></circle><circle cx="1754.5574691172537" cy="361.60367597883396" r="1.122690427998568" fill="white"></circle><circle cx="666.2039019024252" cy="1038.1321610387156" r="2.209773648621833" fill="white"></circle><circle cx="478.19203152203374" cy="825.2580627198572" r="1.928212950531715" fill="white"></circle><circle cx="1122.595797477762" cy="931.9812009433721" r="0.6078744572982959" fill="white"></circle><circle cx="468.23545868918086" cy="601.3079259416584" r="1.8994002379258026" fill="white"></circle><circle cx="1694.754377939873" cy="1022.5403400976244" r="1.8488399378843274" fill="white"></circle><circle cx="741.4970935312299" cy="326.9349089560343" r="1.8411001004646677" fill="white"></circle><circle cx="692.9106283544963" cy="591.7904712229732" r="1.1494187144769326" fill="white"></circle><circle cx="1372.4998655300237" cy="477.72304393311174" r="1.3352631751133024" fill="white"></circle><circle cx="800.8473453573612" cy="91.6615213201621" r="1.36931754669168" fill="white"></circle><circle cx="1004.7344962084194" cy="478.1994077887169" r="2.2512948704138958" fill="white"></circle><circle cx="1470.7535553710002" cy="351.14894179039277" r="1.2239388931185475" fill="white"></circle><circle cx="1038.966641188658" cy="592.5344778597854" r="0.9763932768793859" fill="white"></circle><circle cx="192.8253161030058" cy="1003.0532319641019" r="0.741730193165453" fill="white"></circle><circle cx="1782.0687377369795" cy="356.8692813770955" r="1.7879100123783735" fill="white"></circle><circle cx="1035.4354425651154" cy="1023.5911953530984" r="1.8624493692017627" fill="white"></circle><circle cx="892.8879938577215" cy="756.8482837008282" r="2.1871006671321243" fill="white"></circle><circle cx="963.8474787090206" cy="346.3180759887185" r="0.6095900205661042" fill="white"></circle><circle cx="1147.7290580512115" cy="466.98837916699864" r="1.5023890658936994" fill="white"></circle><circle cx="1342.2105467657134" cy="485.46977961557894" r="2.0883958439443226" fill="white"></circle><circle cx="73.47237247064015" cy="848.5367833924125" r="1.2964557754876362" fill="white"></circle><circle cx="1234.0322187699242" cy="445.6349077638629" r="1.5235443843250396" fill="white"></circle><circle cx="1654.962893168051" cy="202.6559675907794" r="1.6584957772063276" fill="white"></circle><circle cx="575.2155097855207" cy="70.3445621576932" r="2.369064053153636" fill="white"></circle><circle cx="1582.1260476576942" cy="512.4168407814536" r="0.8017903688753174" fill="white"></circle><circle cx="1045.7832711810513" cy="284.32260120316465" r="2.16983058830525" fill="white"></circle><circle cx="1904.8089794483312" cy="979.9856722641541" r="1.084251492732776" fill="white"></circle><circle cx="118.59985588946785" cy="821.5541234330254" r="1.508233618342278" fill="white"></circle><circle cx="691.3650795389501" cy="467.6969622814573" r="1.2229021624444396" fill="white"></circle><circle cx="962.0445317635387" cy="1035.7689349961033" r="1.194550794669449" fill="white"></circle><circle cx="1495.077304423391" cy="750.8472723109477" r="0.6119853192678448" fill="white"></circle><circle cx="1405.5551190177189" cy="156.19810682364005" r="0.9522489677659869" fill="white"></circle><circle cx="1516.843377523997" cy="527.03328658196" r="1.8657310232661066" fill="white"></circle><circle cx="453.54948365641235" cy="325.3896168501381" r="0.6965259094713763" fill="white"></circle><circle cx="163.56817405383353" cy="721.037347356891" r="2.188335753269722" fill="white"></circle><circle cx="841.5783716242929" cy="953.6473933165844" r="1.436146235016032" fill="white"></circle><circle cx="1583.1397880235882" cy="916.0072292259979" r="1.1888490487810368" fill="white"></circle><circle cx="644.9319835989451" cy="468.5722656971353" r="1.835508242358502" fill="white"></circle><circle cx="487.42207030805076" cy="24.330803345144325" r="2.2288538445211183" fill="white"></circle><circle cx="1892.3506494209616" cy="731.6426602090195" r="1.7702515010410593" fill="white"></circle><circle cx="271.4422236041373" cy="802.696781155795" r="2.1703735140451905" fill="white"></circle><circle cx="813.0587839041946" cy="341.8470980413421" r="2.3877541542108656" fill="white"></circle><circle cx="344.2130016652193" cy="77.26690642747998" r="0.8877191674741773" fill="white"></circle><circle cx="322.9506763783189" cy="117.9406363637524" r="1.6491257286876242" fill="white"></circle><circle cx="1909.463759491709" cy="118.76119130794949" r="0.6480948560554447" fill="white"></circle><circle cx="243.28133083468828" cy="669.3559892621871" r="0.5083283780012926" fill="white"></circle><circle cx="130.39090531247268" cy="653.3910780680106" r="1.7128524936145735" fill="white"></circle><circle cx="80.051890115909" cy="493.78440909423034" r="0.8434234450781264" fill="white"></circle><circle cx="1637.6922267480645" cy="883.226125126881" r="1.3157261343774027" fill="white"></circle><circle cx="1499.5132817628605" cy="266.18931890820716" r="0.5301551773873476" fill="white"></circle><circle cx="944.9906741667862" cy="863.7980359409657" r="1.1356382075606821" fill="white"></circle><circle cx="1886.3800961622112" cy="390.5497978994656" r="2.057929128863982" fill="white"></circle><circle cx="1229.9268078972987" cy="24.243441806897774" r="1.334756803334074" fill="white"></circle><circle cx="1421.1140031635748" cy="333.2994799545592" r="0.9590630016488455" fill="white"></circle><circle cx="1775.7931360814036" cy="129.9316271661146" r="1.73862181278897" fill="white"></circle><circle cx="1004.3268635989705" cy="555.1910788299989" r="2.207810846075057" fill="white"></circle><circle cx="1671.4934991596672" cy="173.57825654020706" r="2.4046657124607216" fill="white"></circle><circle cx="700.6465597586075" cy="896.0403916701246" r="1.5156505210870157" fill="white"></circle><circle cx="57.23220506377373" cy="291.4721027649252" r="1.4074788602268598" fill="white"></circle><circle cx="1809.9988750410953" cy="119.34520320649747" r="1.2259937989962757" fill="white"></circle><circle cx="1432.8723904528838" cy="217.62763493284683" r="1.5545139409489939" fill="white"></circle><circle cx="217.49328514638052" cy="631.2981970247134" r="0.7837623777224763" fill="white"></circle><circle cx="1618.4613188266321" cy="524.2419441799555" r="2.1142474162306932" fill="white"></circle><circle cx="1256.6297340233082" cy="4.0851648730339285" r="2.1117747809835743" fill="white"></circle><circle cx="16.4286344098619" cy="413.23584224939174" r="2.204578572813493" fill="white"></circle><circle cx="824.5719535742911" cy="424.8528733141201" r="0.8284559578716673" fill="white"></circle><circle cx="568.407787923509" cy="689.6392991841399" r="1.7182885289708736" fill="white"></circle><circle cx="506.7030671513918" cy="725.8538402623248" r="0.927067482061009" fill="white"></circle><circle cx="123.48095907371857" cy="848.9793982506665" r="2.3827205092786987" fill="white"></circle><circle cx="628.9781374740801" cy="428.3915803585303" r="0.6977668246473483" fill="white"></circle><circle cx="319.26323022713035" cy="528.4103216163022" r="1.9707643795521514" fill="white"></circle><circle cx="833.0858642461869" cy="1010.35911249016" r="1.7622001486686174" fill="white"></circle><circle cx="1757.233347363528" cy="49.91692905139429" r="0.9028091003073744" fill="white"></circle><circle cx="1015.3163330793877" cy="55.29831701555996" r="2.2698312783109866" fill="white"></circle><circle cx="1824.5778150839724" cy="469.09486004774834" r="2.2422135504571994" fill="white"></circle><circle cx="1709.2999254322276" cy="345.58569191509224" r="1.2358577067004815" fill="white"></circle><circle cx="385.47551818067177" cy="112.58511855197567" r="1.062849612677904" fill="white"></circle><circle cx="972.5170496654953" cy="520.6077187321197" r="1.7716086730667802" fill="white"></circle><circle cx="64.10792933589434" cy="549.3625605822808" r="1.7306158758602042" fill="white"></circle><circle cx="810.7567867444692" cy="812.9649171216922" r="2.4100287787795525" fill="white"></circle><circle cx="143.63025420827512" cy="836.709024831774" r="0.9142241184273878" fill="white"></circle><circle cx="1158.7478052209317" cy="894.3959189587647" r="0.6145163186264377" fill="white"></circle><circle cx="254.51179081813478" cy="246.4850627528322" r="0.8443909209137881" fill="white"></circle><circle cx="1221.3575833702375" cy="610.1433000975101" r="2.258418995343645" fill="white"></circle><circle cx="1026.0834444924585" cy="862.9708358581782" r="1.2090163514979304" fill="white"></circle><circle cx="56.525932945515365" cy="685.2820439856677" r="0.869910369394078" fill="white"></circle><circle cx="1915.7266494748992" cy="434.93702087652974" r="1.7716241429530704" fill="white"></circle><circle cx="786.958620424582" cy="748.1963156831317" r="1.1661209088195932" fill="white"></circle><circle cx="1430.1837968815105" cy="650.2903461776008" r="0.9997501628373304" fill="white"></circle><circle cx="1060.741460985842" cy="315.931430847727" r="2.4326744535211455" fill="white"></circle><circle cx="1534.3795261622681" cy="873.7608233957942" r="2.4082887096252685" fill="white"></circle><circle cx="733.6528824751775" cy="362.67689844392487" r="0.8147626188001458" fill="white"></circle><circle cx="1122.9045653540568" cy="1041.8845172513038" r="1.5748588841949105" fill="white"></circle><circle cx="1629.7273977281875" cy="493.60754485766347" r="1.0080122773435516" fill="white"></circle><circle cx="414.8210936371129" cy="809.8044074886329" r="2.2843156874848094" fill="white"></circle><circle cx="208.25964003641573" cy="840.4072664639407" r="2.3848207422418124" fill="white"></circle><circle cx="539.183908908805" cy="1077.5117625405926" r="2.4802153762240167" fill="white"></circle><circle cx="531.0194249396903" cy="473.3000014640809" r="2.0314938900777917" fill="white"></circle><circle cx="1265.0111644952317" cy="622.9735989431581" r="0.8672237582534916" fill="white"></circle><circle cx="847.0671382731516" cy="348.23858462324654" r="0.6080916371992222" fill="white"></circle><circle cx="1796.2435199007887" cy="805.664395032817" r="2.3389591527084725" fill="white"></circle><circle cx="1690.518426585854" cy="185.27341164969218" r="0.5149509416810636" fill="white"></circle><circle cx="83.86462316997353" cy="116.56177442140779" r="1.4279111384328602" fill="white"></circle><circle cx="1775.6651702343777" cy="96.86201984917984" r="0.9127668876938428" fill="white"></circle><circle cx="1531.2460166587823" cy="278.1753374007467" r="0.8580628932098628" fill="white"></circle><circle cx="295.6780916034047" cy="304.64996824367233" r="1.888643472359946" fill="white"></circle><circle cx="74.62713761268134" cy="957.2943904904455" r="1.4770342317290184" fill="white"></circle><circle cx="1685.9123604080905" cy="483.6978065834876" r="0.8539163462259216" fill="white"></circle><circle cx="1769.3721091777868" cy="155.35885278710776" r="1.7546101417414057" fill="white"></circle><circle cx="1891.393870237727" cy="944.7308580983112" r="0.6090467406505602" fill="white"></circle><circle cx="294.24681645372016" cy="941.1730190726621" r="2.4109273075205553" fill="white"></circle><circle cx="1904.4485864545863" cy="646.9703874924038" r="0.6081415204155878" fill="white"></circle><circle cx="1759.796560572485" cy="846.0848334312699" r="1.5644334946459368" fill="white"></circle><circle cx="1519.1985031133622" cy="142.09550120369371" r="1.196551011908911" fill="white"></circle><circle cx="685.2260147240352" cy="511.159920743599" r="2.290158695857913" fill="white"></circle><circle cx="907.722449052706" cy="622.8520709891985" r="2.1151743271420416" fill="white"></circle><circle cx="1404.1502149236176" cy="182.6493406226413" r="2.4124876006938156" fill="white"></circle><circle cx="400.79107311270957" cy="462.4934299106892" r="0.5852125456751529" fill="white"></circle><circle cx="1116.672810019332" cy="113.64019878376835" r="1.2747251811904077" fill="white"></circle><circle cx="1763.587320039956" cy="1051.3894698206575" r="0.5079937158997554" fill="white"></circle><circle cx="548.9601954940788" cy="676.8553471422553" r="1.44922556053301" fill="white"></circle><circle cx="740.4157405629763" cy="7.4294321311983325" r="2.2305826535212745" fill="white"></circle><circle cx="78.09444501281547" cy="835.3072305080955" r="1.826393222731308" fill="white"></circle><circle cx="25.750221612943278" cy="674.5852070926182" r="2.189570967849112" fill="white"></circle><circle cx="510.8594546204722" cy="115.77313546120035" r="2.3833398059849724" fill="white"></circle><circle cx="1489.892389275551" cy="225.39748335407538" r="0.5970578190447253" fill="white"></circle><circle cx="1488.4313959957103" cy="385.3966871296855" r="1.0645758709111695" fill="white"></circle><circle cx="1140.2843955989738" cy="706.8824702801988" r="1.8261770217474864" fill="white"></circle><circle cx="1281.875528670564" cy="6.112090336560465" r="1.8951773876804436" fill="white"></circle><circle cx="77.61811650870087" cy="360.35202534073" r="1.404092353341404" fill="white"></circle><circle cx="223.81398923620765" cy="365.4716651019579" r="1.0982978417450142" fill="white"></circle><circle cx="324.6052993399073" cy="986.9486188466565" r="1.5547304802724478" fill="white"></circle><circle cx="621.3936389990342" cy="287.732779462414" r="1.8039213866318184" fill="white"></circle><circle cx="781.4548971242775" cy="1020.1784450881785" r="0.6028720334106272" fill="white"></circle><circle cx="336.06715697483014" cy="435.97504356542237" r="2.1635781819079476" fill="white"></circle><circle cx="1380.3891095519282" cy="768.6331085036867" r="1.7100488141819272" fill="white"></circle><circle cx="1062.4407876874316" cy="6.453535104325638" r="2.0957823399727427" fill="white"></circle><circle cx="1889.8931606622145" cy="290.5055674053453" r="1.2310085023705821" fill="white"></circle><circle cx="1860.6390106775823" cy="78.47041279286094" r="0.6013383627457376" fill="white"></circle><circle cx="702.7300105929189" cy="385.077586460565" r="0.8846452755737682" fill="white"></circle><circle cx="698.2981604712558" cy="407.26052921952504" r="2.2850260379844807" fill="white"></circle><circle cx="127.69102152081473" cy="32.11002643698329" r="1.972464243776824" fill="white"></circle><circle cx="795.0294845338447" cy="221.4860340997176" r="1.0858509731337591" fill="white"></circle><circle cx="129.72689079489228" cy="152.14465837958213" r="1.7214881563777142" fill="white"></circle><circle cx="321.2330412403826" cy="1030.3421737507292" r="1.4058486643362995" fill="white"></circle><circle cx="1810.2590476745734" cy="255.2636959924126" r="1.5409732543669445" fill="white"></circle><circle cx="1343.3333682762122" cy="674.657105957723" r="0.6441884623038927" fill="white"></circle><circle cx="511.8319216040132" cy="561.5209068694724" r="1.1977814663838968" fill="white"></circle><circle cx="98.8988841192213" cy="522.9288149569968" r="1.6447767953635442" fill="white"></circle><circle cx="1295.078492597379" cy="787.7620219599597" r="2.169482651771789" fill="white"></circle><circle cx="1331.8805396139646" cy="456.4775602982404" r="1.0260945846722271" fill="white"></circle><circle cx="1363.15214631733" cy="176.7978513873023" r="1.6989984149580009" fill="white"></circle><circle cx="340.488422480783" cy="763.2135634495411" r="0.8393551585081509" fill="white"></circle><circle cx="1266.4201849948324" cy="961.4447791985077" r="2.1084631745360696" fill="white"></circle><circle cx="100.69590874125495" cy="594.5723917748393" r="0.5641778797876946" fill="white"></circle><circle cx="456.44753696327683" cy="1046.0471943703399" r="1.4744576733382955" fill="white"></circle><circle cx="1523.2549097990316" cy="579.7374945745514" r="2.261424216459668" fill="white"></circle><circle cx="1390.7544292026703" cy="701.1606779403845" r="1.3096407586640901" fill="white"></circle><circle cx="631.1740688000318" cy="805.7841530926148" r="0.9697131730782207" fill="white"></circle><circle cx="1032.8011417402895" cy="172.4495963556057" r="2.107260805490644" fill="white"></circle><circle cx="1752.90528495636" cy="190.50834163058497" r="1.4299132112349064" fill="white"></circle><circle cx="405.83528655913994" cy="889.9227790848751" r="1.5331188149870267" fill="white"></circle><circle cx="686.01632389974" cy="258.06600037323386" r="0.6186791447799771" fill="white"></circle><circle cx="926.4093675779422" cy="636.6209214687811" r="1.1273085448546385" fill="white"></circle><circle cx="496.153225193888" cy="1050.3199088246536" r="1.2876147907280737" fill="white"></circle><circle cx="827.9372283157431" cy="471.12877684704955" r="1.0999623062202102" fill="white"></circle><circle cx="1039.507979745676" cy="1008.4362810221669" r="1.1986928554188343" fill="white"></circle><circle cx="286.3963081979931" cy="329.5242080994743" r="2.1902164671722937" fill="white"></circle><circle cx="344.93836974024873" cy="758.2400102419236" r="2.26387870265279" fill="white"></circle><circle cx="170.74156231553346" cy="477.8350456335807" r="0.8160813599431371" fill="white"></circle><circle cx="359.11250249307943" cy="527.5028130149393" r="1.8245210604577053" fill="white"></circle><circle cx="1552.8325899344966" cy="116.16632074546646" r="0.5668651722848663" fill="white"></circle><circle cx="385.14430078352007" cy="83.97346134063002" r="1.6230072330482717" fill="white"></circle><circle cx="1073.4322718097742" cy="569.152546704469" r="1.966192888426674" fill="white"></circle><circle cx="1546.9431951903562" cy="372.0840398647313" r="2.3354662624189246" fill="white"></circle><circle cx="1428.103420141786" cy="392.14548534254084" r="0.5164675419291109" fill="white"></circle><circle cx="225.92565623052167" cy="810.0870142157441" r="1.2321251665015183" fill="white"></circle><circle cx="183.43952695197189" cy="88.94050371970468" r="1.2089591844679672" fill="white"></circle><circle cx="309.275299240594" cy="340.3165946410415" r="0.6126700565135752" fill="white"></circle><circle cx="1520.6141464363764" cy="826.4013469750222" r="1.1204686818796743" fill="white"></circle><circle cx="592.5768502410117" cy="926.1309633087592" r="0.8650016134941607" fill="white"></circle><circle cx="124.66802146830915" cy="1021.8386961122915" r="0.921795568737914" fill="white"></circle><circle cx="1713.9960795028983" cy="1018.5580319695922" r="2.1154567851944175" fill="white"></circle><circle cx="1338.5862474049331" cy="299.259238963728" r="2.1946731028088124" fill="white"></circle><circle cx="449.43915895500567" cy="302.5653618615476" r="1.1377764176224954" fill="white"></circle><circle cx="421.2966569198258" cy="1000.1656817755614" r="1.102997683049221" fill="white"></circle><circle cx="1543.8431005704783" cy="18.449244457226463" r="0.6565642036045269" fill="white"></circle><circle cx="607.1633726030371" cy="799.6840920841012" r="1.0810662872193952" fill="white"></circle><circle cx="732.0626650388899" cy="793.140268465276" r="0.7611269922623065" fill="white"></circle><circle cx="1481.1457086178168" cy="729.7555956375973" r="2.1218628046329044" fill="white"></circle><circle cx="1334.9482321283717" cy="931.9772917977975" r="1.0997937040584147" fill="white"></circle><circle cx="1279.1290807471719" cy="986.8937094205041" r="1.4680276443638371" fill="white"></circle><circle cx="481.54308038742073" cy="364.74979670474494" r="1.5829233199914006" fill="white"></circle><circle cx="1803.8132110993124" cy="818.6121721992323" r="1.3250857247794685" fill="white"></circle><circle cx="290.3762564513029" cy="817.5650981098908" r="1.902896244947966" fill="white"></circle><circle cx="1015.6706904238754" cy="8.083732597203497" r="1.0739583521554628" fill="white"></circle><circle cx="1675.771543932285" cy="534.9113014027623" r="2.4525364267482317" fill="white"></circle><circle cx="866.1474505290852" cy="228.2208484853586" r="2.003936415437794" fill="white"></circle><circle cx="617.3933358092506" cy="411.9036134561022" r="1.8952354205696378" fill="white"></circle><circle cx="540.6400923068264" cy="223.21147809234168" r="1.7601003327576645" fill="white"></circle><circle cx="1139.2014333098475" cy="853.0798370406097" r="1.8366320047224005" fill="white"></circle><circle cx="164.98957592797865" cy="228.4402057128162" r="2.254271927589252" fill="white"></circle><circle cx="1594.5833607272739" cy="532.6891939125662" r="1.9184325033249343" fill="white"></circle><circle cx="946.7707925736981" cy="89.75553758212504" r="1.4792115894850504" fill="white"></circle><circle cx="1284.8897009380562" cy="388.17077425546364" r="1.1893722260663884" fill="white"></circle><circle cx="241.66629197827248" cy="327.7950223210464" r="1.3912105854576677" fill="white"></circle><circle cx="408.7236874147975" cy="727.7795532564901" r="2.2205675307428137" fill="white"></circle><circle cx="170.10942050056613" cy="34.644754068426764" r="2.4057619398523094" fill="white"></circle><circle cx="984.5199899472223" cy="596.2800396799837" r="1.5285672077289578" fill="white"></circle><circle cx="1082.2983443967564" cy="145.30987849507716" r="2.2007792997631923" fill="white"></circle><circle cx="1008.7089136860449" cy="811.3504974077546" r="2.2191678529015038" fill="white"></circle><circle cx="1536.668887808669" cy="480.4521762640518" r="1.8290677285971215" fill="white"></circle><circle cx="1803.2103355842455" cy="453.0412205444951" r="0.5342895085249006" fill="white"></circle><circle cx="1706.821414745997" cy="308.7935849745433" r="1.5251434236642938" fill="white"></circle><circle cx="1641.976333487592" cy="763.7970303472823" r="0.7306691281440116" fill="white"></circle><circle cx="307.4836353604105" cy="98.44886318290654" r="1.8496852400892574" fill="white"></circle><circle cx="781.5410217296171" cy="734.4240726156274" r="1.693540184660022" fill="white"></circle><circle cx="794.4253628575133" cy="592.6083956586945" r="1.1816372151212389" fill="white"></circle><circle cx="212.47278846230472" cy="667.6770328584897" r="1.891853615873592" fill="white"></circle><circle cx="524.6132841097051" cy="270.7047195422426" r="0.6946881089371497" fill="white"></circle><circle cx="1305.3197396949988" cy="141.3742922161259" r="1.5352935893929938" fill="white"></circle><circle cx="799.6728082887421" cy="133.7313293810228" r="0.9076755652311079" fill="white"></circle><circle cx="1516.9672124408685" cy="793.997158992794" r="0.9418180724407645" fill="white"></circle><circle cx="469.6254105639839" cy="354.7317965058862" r="2.1678826212496456" fill="white"></circle><circle cx="921.4340934460232" cy="889.2795525939881" r="1.0602776851961964" fill="white"></circle><circle cx="847.2564460686988" cy="326.7704958381484" r="1.2147000794941665" fill="white"></circle><circle cx="22.263126048214872" cy="698.3500222203104" r="1.6319799941117048" fill="white"></circle><circle cx="810.0898016408021" cy="822.2634770662743" r="0.5785042391180575" fill="white"></circle><circle cx="144.31683169489958" cy="520.7371968004534" r="2.282387625849571" fill="white"></circle><circle cx="1394.4644510641142" cy="844.1620626510855" r="0.9829922431606688" fill="white"></circle><circle cx="1427.3705967718222" cy="650.3908524810086" r="1.359702179619236" fill="white"></circle><circle cx="653.8855675392175" cy="536.9365235519165" r="1.2237907543764242" fill="white"></circle><circle cx="424.8411040966178" cy="628.2479305714304" r="1.6297383874959857" fill="white"></circle><circle cx="486.2622684060584" cy="133.5096117449195" r="2.375606223372386" fill="white"></circle><circle cx="467.60852509821007" cy="1064.714652495666" r="2.115501415864386" fill="white"></circle><circle cx="624.8486441112688" cy="1013.8963059434357" r="1.7382016754478093" fill="white"></circle><circle cx="258.1597819256108" cy="260.78313678350656" r="1.1403007064621313" fill="white"></circle><circle cx="1049.2506213675777" cy="785.9363849710903" r="0.9916286610534248" fill="white"></circle><circle cx="1202.716173808614" cy="57.56809002010641" r="0.7460226291008629" fill="white"></circle><circle cx="677.3820381206731" cy="192.60952485107336" r="2.337901261369446" fill="white"></circle><circle cx="1380.7295599546026" cy="737.4724662093838" r="1.9273680750265072" fill="white"></circle><circle cx="1899.7203587419976" cy="531.5841564776259" r="2.050328080760644" fill="white"></circle><circle cx="936.446403866185" cy="723.3176225884395" r="1.0359679639405988" fill="white"></circle><circle cx="1071.8976697408943" cy="1022.6138015488352" r="2.3758818028221045" fill="white"></circle><circle cx="1893.566663864352" cy="640.5888386788307" r="2.4188009781834694" fill="white"></circle><circle cx="606.8969416525138" cy="969.6079054741213" r="0.8940435715996284" fill="white"></circle><circle cx="1077.5038934299237" cy="118.21597610650629" r="2.2126987656473416" fill="white"></circle></svg>